<?xml version="1.0" encoding="UTF-8"?>
<svg id="Layer_1" data-name="Layer 1" xmlns="http://www.w3.org/2000/svg" viewBox="0 0 32 32">
  <defs>
    <style>
      .cls-1 {
        fill: gold;
      }

      .cls-2 {
        fill: #1a1a1a;
      }
    </style>
  </defs>
  <rect class="cls-2" width="32" height="32"/>
  <path class="cls-1" d="M23.85,10.47v2.12c0,.33-.27.59-.6.59h-5.79v2.4h5.25c.33,0,.6.26.6.59v2.13c0,.33-.27.58-.6.58h-5.25v9.21c0,.43-.35.78-.78.78h-1.83c-.42,0-.77-.35-.77-.78v-9.21h-5.34c-.33,0-.6-.25-.6-.58V3.72c0-.32.27-.59.6-.59h2.19c.33,0,.6.27.6.59v11.86h2.55v-5.11c0-.34.27-.6.6-.6h8.57c.33,0,.6.26.6.6Z"/>
</svg>